<svg width="88" height="88" viewBox="0 0 88 88" fill="none" xmlns="http://www.w3.org/2000/svg">
<path fill-rule="evenodd" clip-rule="evenodd" d="M60 32C60 36.2435 58.3143 40.3131 55.3137 43.3137C52.3131 46.3143 48.2435 48 44 48C39.7565 48 35.6869 46.3143 32.6863 43.3137C29.6857 40.3131 28 36.2435 28 32C28 27.7565 29.6857 23.6869 32.6863 20.6863C35.6869 17.6857 39.7565 16 44 16C48.2435 16 52.3131 17.6857 55.3137 20.6863C58.3143 23.6869 60 27.7565 60 32ZM52 32C52 34.1217 51.1571 36.1566 49.6569 37.6569C48.1566 39.1571 46.1217 40 44 40C41.8783 40 39.8434 39.1571 38.3431 37.6569C36.8429 36.1566 36 34.1217 36 32C36 29.8783 36.8429 27.8434 38.3431 26.3431C39.8434 24.8429 41.8783 24 44 24C46.1217 24 48.1566 24.8429 49.6569 26.3431C51.1571 27.8434 52 29.8783 52 32Z" fill="black"/>
<path fill-rule="evenodd" clip-rule="evenodd" d="M44 0C19.7 0 0 19.7 0 44C0 68.3 19.7 88 44 88C68.3 88 88 68.3 88 44C88 19.7 68.3 0 44 0ZM8 44C8 52.36 10.852 60.056 15.632 66.168C18.9898 61.7605 23.3206 58.1886 28.2866 55.7309C33.2525 53.2733 38.7192 51.9964 44.26 52C49.7295 51.9936 55.1283 53.2364 60.0445 55.6335C64.9608 58.0306 69.2647 61.5188 72.628 65.832C76.0938 61.2864 78.4273 55.9809 79.4356 50.3544C80.4438 44.7279 80.0977 38.9421 78.426 33.4759C76.7542 28.0097 73.8049 23.0202 69.8219 18.9201C65.839 14.8201 60.937 11.7274 55.5215 9.89804C50.1061 8.06863 44.3328 7.55509 38.6794 8.39989C33.0261 9.2447 27.6552 11.4236 23.0111 14.7562C18.367 18.0889 14.5832 22.4795 11.9729 27.5648C9.36259 32.6501 8.00072 38.2839 8 44ZM44 80C35.7356 80.0134 27.7206 77.1703 21.312 71.952C23.8912 68.2585 27.3248 65.2428 31.3203 63.1618C35.3158 61.0808 39.755 59.9961 44.26 60C48.7087 59.9961 53.0941 61.0538 57.0519 63.0852C61.0098 65.1167 64.4257 68.0632 67.016 71.68C60.5579 77.068 52.4106 80.0132 44 80Z" fill="black"/>
</svg>
